# xmcd CD database file
# Copyright (C) 1993-1998 Ti Kan
# 
# Track frame offsets:
#     150
#     24325
#     52028
#     72813
#     97570
#     122625
#     134713
#     156025
#     178993
#     204270
#     222773
#     242775
#     269043
#     295170
# 
# Disc length: 4227 seconds
# 
# Revision: 1
# Processed by: cddbd v1.4b41PL1 Copyright (c) Steve Scherf et al.
# Submitted via: DiscPlay 4.0.4
# 
DISCID=ce10810e
DTITLE=Masters of modern guitar - Guitarisma ( Vol. II )
DYEAR=1900
DGENRE=
TTITLE0=I like The Way You Are ( Ryo Kawasaki )
TTITLE1=Quetzal ( Strunz and Farah )
TTITLE2=Per Mi Amore ( Denny Jiosa )
TTITLE3=Intimate Journey ( Gils De Lange )
TTITLE4=Exotico ( Lara and Reyes )
TTITLE5=Catch The Wave ( Lee Eisenstein )
TTITLE6=Michelle ( Chris Camozzi )
TTITLE7=Gypsies ( Grant Geissman )
TTITLE8=Hideway ( Chielli Minucci )
TTITLE9=Papa Shuffle ( Thom Rotella )
TTITLE10=I'll Take You There ( Erich Avinger )
TTITLE11=Sounds Like Rain ( Phil Sheeran )
TTITLE12=Special Place ( Evan Marks )
TTITLE13=Through Your Eyes ( Shahin and Sepehr )
EXTD=
EXTT0=
EXTT1=
EXTT2=
EXTT3=
EXTT4=
EXTT5=
EXTT6=
EXTT7=
EXTT8=
EXTT9=
EXTT10=
EXTT11=
EXTT12=
EXTT13=
PLAYORDER=
